<svg width="40" height="40" xmlns="http://www.w3.org/2000/svg">

    <g>
        <title>background</title>
        <rect fill="none" id="canvas_background" height="42" width="42" y="-1" x="-1"/>
    </g>
    <g>
        <title>Layer 1</title>
        <g stroke="#29BEB0" id="svg_1" stroke-width="0">
            <path stroke="#29BEB0" fill="#29BEB0" id="svg_2"
                  d="m32.020861,7.418476c-3.210942,-3.494115 -7.48,-5.418476 -12.02086,-5.418476s-8.809919,1.924361 -12.02086,5.418476c-3.210809,3.49426 -4.979141,8.14 -4.979141,13.081523s1.768332,9.587263 4.979141,13.081523c3.210942,3.494115 7.48,5.418476 12.02086,5.418476s8.809919,-1.924361 12.02086,-5.418476c3.210809,-3.49426 4.979141,-8.14 4.979141,-13.081523s-1.768332,-9.587263 -4.979141,-13.081523zm-12.02086,29.413554c-8.275348,0 -15.007813,-7.326506 -15.007813,-16.332031s6.732465,-16.332031 15.007813,-16.332031s15.007813,7.326506 15.007813,16.332031s-6.732465,16.332031 -15.007813,16.332031z"/>
            <path stroke="#29BEB0" id="svg_3" fill="#29BEB0"
                  d="m20.000001,6.408203c-7.1402,0 -12.94922,6.32158 -12.94922,14.091796s5.80902,14.091796 12.94922,14.091796s12.94922,-6.32158 12.94922,-14.091796s-5.80902,-14.091796 -12.94922,-14.091796zm-10.957032,14.091796c0,-1.282932 0.18793,-2.518818 0.534039,-3.677814l6.367895,6.929767l-6.487692,0c-0.269742,-1.034121 -0.414242,-2.125043 -0.414242,-3.251953zm10.957032,3.251953c-1.647738,0 -2.988281,-1.458826 -2.988281,-3.251953s1.340543,-3.251953 2.988281,-3.251953s2.988281,1.458826 2.988281,3.251953s-1.340543,3.251953 -2.988281,3.251953zm4.055098,-6.503906l6.487692,0c0.269742,1.034121 0.414242,2.125043 0.414242,3.251953c0,1.282932 -0.18793,2.518746 -0.534039,3.677742l-6.367895,-6.929695zm5.703168,-2.167969l-9.003891,0l4.584688,-4.989219c1.886602,1.150541 3.430746,2.890191 4.419203,4.989219zm-6.378719,-5.922746l-6.367829,6.929695l0,-7.060062c0.950273,-0.293543 1.952742,-0.450793 2.988281,-0.450793c1.17891,0 2.314524,0.204512 3.379547,0.58116zm-8.360016,0.723379l0,9.798279l-4.584688,-4.989219c1.05732,-2.053066 2.655852,-3.733387 4.584688,-4.80906zm-4.777797,16.03921l9.003825,0l-4.584621,4.989219c-1.886668,-1.150541 -3.430746,-2.890191 -4.419203,-4.989219zm6.378719,5.922746l6.367829,-6.92984l0,7.060207c-0.950273,0.293543 -1.952742,0.450793 -2.988281,0.450793c-1.17891,0 -2.31459,-0.204512 -3.379547,-0.58116zm8.360016,-0.723379l0,-9.798351l4.584688,4.989219c-1.057254,2.053066 -2.655852,3.733459 -4.584688,4.809133z"/>
        </g>
    </g>
</svg>