<?xml version="1.0" encoding="UTF-8"?>
<svg xmlns="http://www.w3.org/2000/svg" width="12pt" height="12pt" viewBox="0 0 12 12" version="1.1">
    <g id="surface1">
        <path style=" stroke:none;fill:#fff;fill-opacity:1;"
              d="M 9.996094 0.269531 C 9.808594 0.269531 9.652344 0.425781 9.652344 0.617188 L 9.652344 1.238281 C 8.609375 0.433594 7.339844 0 6 0 C 4.398438 0 2.890625 0.625 1.757812 1.757812 C 0.625 2.890625 0 4.398438 0 6 C 0 7.601562 0.625 9.109375 1.757812 10.242188 C 1.824219 10.308594 1.914062 10.34375 2.003906 10.34375 C 2.089844 10.34375 2.179688 10.308594 2.246094 10.242188 C 2.382812 10.109375 2.382812 9.886719 2.246094 9.753906 C 1.246094 8.75 0.691406 7.417969 0.691406 6 C 0.691406 3.074219 3.074219 0.691406 6 0.691406 C 7.109375 0.691406 8.164062 1.03125 9.050781 1.65625 L 8.613281 1.65625 C 8.421875 1.65625 8.265625 1.8125 8.265625 2.003906 C 8.265625 2.191406 8.421875 2.347656 8.613281 2.347656 L 9.996094 2.347656 C 10.007812 2.347656 10.019531 2.347656 10.03125 2.347656 C 10.039062 2.34375 10.050781 2.34375 10.058594 2.34375 C 10.0625 2.34375 10.0625 2.34375 10.0625 2.339844 C 10.074219 2.339844 10.082031 2.335938 10.089844 2.335938 C 10.09375 2.335938 10.09375 2.335938 10.097656 2.332031 C 10.105469 2.332031 10.113281 2.328125 10.121094 2.324219 C 10.125 2.324219 10.125 2.324219 10.128906 2.324219 C 10.136719 2.320312 10.144531 2.316406 10.152344 2.3125 C 10.15625 2.308594 10.15625 2.308594 10.160156 2.308594 C 10.167969 2.304688 10.175781 2.296875 10.183594 2.292969 C 10.183594 2.292969 10.1875 2.292969 10.1875 2.289062 C 10.226562 2.265625 10.261719 2.230469 10.285156 2.191406 C 10.289062 2.191406 10.289062 2.191406 10.289062 2.1875 C 10.292969 2.179688 10.300781 2.171875 10.304688 2.164062 C 10.304688 2.160156 10.304688 2.160156 10.308594 2.15625 C 10.3125 2.148438 10.316406 2.140625 10.316406 2.132812 C 10.320312 2.132812 10.320312 2.128906 10.320312 2.125 C 10.324219 2.117188 10.328125 2.109375 10.328125 2.101562 C 10.328125 2.097656 10.332031 2.097656 10.332031 2.09375 C 10.332031 2.085938 10.335938 2.078125 10.335938 2.070312 C 10.335938 2.066406 10.339844 2.066406 10.339844 2.0625 C 10.339844 2.054688 10.339844 2.042969 10.34375 2.035156 C 10.34375 2.023438 10.34375 2.011719 10.34375 2.003906 L 10.34375 0.617188 C 10.34375 0.425781 10.1875 0.269531 9.996094 0.269531 Z M 9.996094 0.269531 "/>
        <path style=" stroke:none;fill:#fff;fill-opacity:1;"
              d="M 8.953125 4.421875 L 7.691406 4.421875 L 7.292969 3.628906 C 7.234375 3.511719 7.117188 3.4375 6.984375 3.4375 L 5.015625 3.4375 C 4.882812 3.4375 4.765625 3.511719 4.707031 3.628906 L 4.308594 4.421875 L 3.046875 4.421875 C 2.855469 4.421875 2.699219 4.578125 2.699219 4.769531 L 2.699219 8.214844 C 2.699219 8.40625 2.855469 8.5625 3.046875 8.5625 L 8.953125 8.5625 C 9.144531 8.5625 9.300781 8.40625 9.300781 8.214844 L 9.300781 4.769531 C 9.300781 4.578125 9.144531 4.421875 8.953125 4.421875 Z M 8.605469 7.867188 L 3.394531 7.867188 L 3.394531 5.117188 L 4.523438 5.117188 C 4.65625 5.117188 4.773438 5.042969 4.832031 4.925781 L 5.230469 4.132812 L 6.769531 4.132812 L 7.167969 4.925781 C 7.226562 5.042969 7.34375 5.117188 7.476562 5.117188 L 8.605469 5.117188 Z M 8.605469 7.867188 "/>
        <path style=" stroke:none;fill:#fff;fill-opacity:1;"
              d="M 6 4.914062 C 5.265625 4.914062 4.667969 5.511719 4.667969 6.246094 C 4.667969 6.980469 5.265625 7.578125 6 7.578125 C 6.734375 7.578125 7.332031 6.980469 7.332031 6.246094 C 7.332031 5.511719 6.734375 4.914062 6 4.914062 Z M 6 6.882812 C 5.648438 6.882812 5.363281 6.597656 5.363281 6.246094 C 5.363281 5.894531 5.648438 5.609375 6 5.609375 C 6.351562 5.609375 6.636719 5.894531 6.636719 6.246094 C 6.636719 6.597656 6.351562 6.882812 6 6.882812 Z M 6 6.882812 "/>
        <path style=" stroke:none;fill:#fff;fill-opacity:1;"
              d="M 3.464844 10.664062 C 3.386719 10.621094 3.304688 10.574219 3.230469 10.527344 C 3.066406 10.429688 2.855469 10.480469 2.753906 10.644531 C 2.65625 10.804688 2.707031 11.019531 2.867188 11.117188 C 2.953125 11.171875 3.042969 11.222656 3.132812 11.269531 C 3.183594 11.300781 3.242188 11.3125 3.296875 11.3125 C 3.421875 11.3125 3.539062 11.25 3.601562 11.132812 C 3.691406 10.964844 3.632812 10.753906 3.464844 10.664062 Z M 3.464844 10.664062 "/>
        <path style=" stroke:none;fill:#fff;fill-opacity:1;"
              d="M 6.136719 11.304688 C 6.046875 11.308594 5.957031 11.308594 5.867188 11.304688 C 5.863281 11.304688 5.859375 11.304688 5.859375 11.304688 C 5.671875 11.304688 5.515625 11.457031 5.511719 11.644531 C 5.507812 11.835938 5.660156 11.992188 5.847656 12 C 5.898438 12 5.949219 12 6 12 C 6.050781 12 6.101562 12 6.152344 12 C 6.34375 11.992188 6.496094 11.835938 6.492188 11.644531 C 6.484375 11.453125 6.328125 11.300781 6.136719 11.304688 Z M 6.136719 11.304688 "/>
        <path style=" stroke:none;fill:#fff;fill-opacity:1;"
              d="M 4.757812 11.160156 C 4.667969 11.140625 4.582031 11.117188 4.496094 11.09375 C 4.3125 11.039062 4.121094 11.144531 4.066406 11.324219 C 4.011719 11.507812 4.117188 11.703125 4.300781 11.757812 C 4.398438 11.785156 4.496094 11.8125 4.59375 11.835938 C 4.621094 11.839844 4.648438 11.84375 4.675781 11.84375 C 4.832031 11.84375 4.972656 11.738281 5.011719 11.578125 C 5.058594 11.394531 4.941406 11.207031 4.757812 11.160156 Z M 4.757812 11.160156 "/>
        <path style=" stroke:none;fill:#fff;fill-opacity:1;"
              d="M 10.335938 9.644531 C 10.199219 9.511719 9.980469 9.515625 9.847656 9.65625 C 9.785156 9.71875 9.722656 9.785156 9.65625 9.847656 C 9.519531 9.976562 9.515625 10.195312 9.644531 10.335938 C 9.714844 10.40625 9.804688 10.441406 9.898438 10.441406 C 9.984375 10.441406 10.066406 10.410156 10.136719 10.347656 C 10.207031 10.277344 10.28125 10.207031 10.351562 10.132812 C 10.480469 9.992188 10.476562 9.773438 10.335938 9.644531 Z M 10.335938 9.644531 "/>
        <path style=" stroke:none;fill:#fff;fill-opacity:1;"
              d="M 11.832031 4.589844 C 11.808594 4.492188 11.785156 4.394531 11.753906 4.296875 C 11.699219 4.113281 11.507812 4.007812 11.324219 4.0625 C 11.140625 4.117188 11.035156 4.308594 11.089844 4.492188 C 11.117188 4.578125 11.140625 4.664062 11.160156 4.753906 C 11.199219 4.910156 11.339844 5.019531 11.496094 5.019531 C 11.523438 5.019531 11.550781 5.015625 11.578125 5.007812 C 11.765625 4.964844 11.878906 4.777344 11.832031 4.589844 Z M 11.832031 4.589844 "/>
        <path style=" stroke:none;fill:#fff;fill-opacity:1;"
              d="M 11.996094 5.84375 C 11.992188 5.652344 11.835938 5.503906 11.644531 5.507812 C 11.453125 5.511719 11.300781 5.671875 11.304688 5.863281 C 11.308594 5.910156 11.308594 5.953125 11.308594 6 C 11.308594 6.042969 11.308594 6.089844 11.304688 6.132812 C 11.300781 6.324219 11.453125 6.480469 11.644531 6.484375 C 11.648438 6.484375 11.648438 6.484375 11.652344 6.484375 C 11.839844 6.484375 11.992188 6.335938 12 6.148438 C 12 6.101562 12 6.050781 12 6 C 12 5.949219 12 5.898438 11.996094 5.84375 Z M 11.996094 5.84375 "/>
        <path style=" stroke:none;fill:#fff;fill-opacity:1;"
              d="M 11.132812 8.394531 C 10.964844 8.304688 10.757812 8.367188 10.664062 8.535156 C 10.621094 8.613281 10.578125 8.691406 10.53125 8.769531 C 10.429688 8.929688 10.480469 9.144531 10.644531 9.242188 C 10.699219 9.277344 10.761719 9.292969 10.824219 9.292969 C 10.941406 9.292969 11.054688 9.234375 11.121094 9.128906 C 11.171875 9.042969 11.222656 8.953125 11.273438 8.867188 C 11.363281 8.699219 11.300781 8.488281 11.132812 8.394531 Z M 11.132812 8.394531 "/>
        <path style=" stroke:none;fill:#fff;fill-opacity:1;"
              d="M 11.269531 3.128906 C 11.222656 3.039062 11.167969 2.949219 11.117188 2.863281 C 11.015625 2.703125 10.804688 2.652344 10.640625 2.75 C 10.476562 2.851562 10.425781 3.0625 10.527344 3.226562 C 10.574219 3.304688 10.617188 3.382812 10.660156 3.460938 C 10.722656 3.574219 10.84375 3.640625 10.964844 3.640625 C 11.023438 3.640625 11.078125 3.625 11.132812 3.597656 C 11.300781 3.507812 11.359375 3.296875 11.269531 3.128906 Z M 11.269531 3.128906 "/>
        <path style=" stroke:none;fill:#fff;fill-opacity:1;"
              d="M 9.246094 10.640625 C 9.148438 10.480469 8.933594 10.429688 8.769531 10.527344 C 8.695312 10.574219 8.617188 10.621094 8.539062 10.664062 C 8.371094 10.753906 8.308594 10.964844 8.398438 11.132812 C 8.464844 11.246094 8.582031 11.3125 8.703125 11.3125 C 8.761719 11.3125 8.816406 11.300781 8.871094 11.269531 C 8.957031 11.222656 9.046875 11.171875 9.132812 11.117188 C 9.296875 11.019531 9.347656 10.804688 9.246094 10.640625 Z M 9.246094 10.640625 "/>
        <path style=" stroke:none;fill:#fff;fill-opacity:1;"
              d="M 7.933594 11.324219 C 7.882812 11.140625 7.6875 11.039062 7.503906 11.089844 C 7.417969 11.117188 7.332031 11.140625 7.246094 11.160156 C 7.058594 11.207031 6.945312 11.390625 6.988281 11.578125 C 7.027344 11.738281 7.171875 11.84375 7.328125 11.84375 C 7.351562 11.84375 7.378906 11.839844 7.40625 11.832031 C 7.503906 11.808594 7.605469 11.785156 7.703125 11.753906 C 7.882812 11.699219 7.988281 11.507812 7.933594 11.324219 Z M 7.933594 11.324219 "/>
        <path style=" stroke:none;fill:#fff;fill-opacity:1;"
              d="M 11.578125 6.984375 C 11.394531 6.941406 11.207031 7.054688 11.160156 7.242188 C 11.140625 7.328125 11.117188 7.414062 11.09375 7.5 C 11.039062 7.683594 11.144531 7.875 11.328125 7.929688 C 11.359375 7.941406 11.390625 7.945312 11.425781 7.945312 C 11.574219 7.945312 11.710938 7.847656 11.757812 7.695312 C 11.785156 7.597656 11.8125 7.5 11.835938 7.402344 C 11.878906 7.214844 11.765625 7.03125 11.578125 6.984375 Z M 11.578125 6.984375 "/>
    </g>
</svg>