<?xml version="1.0" encoding="UTF-8"?>
<svg xmlns="http://www.w3.org/2000/svg" xmlns:xlink="http://www.w3.org/1999/xlink" width="48pt" height="48pt" viewBox="0 0 48 48" version="1.1">
<g id="surface1">
<path style=" stroke:none;fill-rule:nonzero;fill:rgb(0%,0%,0%);fill-opacity:1;" d="M 47.199219 12.398438 L 46.398438 12.398438 L 46.398438 10 C 46.398438 9.558594 46.042969 9.199219 45.601562 9.199219 L 37.601562 9.199219 C 37.15625 9.199219 36.800781 9.558594 36.800781 10 L 36.800781 12.398438 L 34.769531 12.398438 L 30.207031 7.078125 C 30.054688 6.902344 29.832031 6.800781 29.601562 6.800781 L 17.601562 6.800781 C 17.367188 6.800781 17.144531 6.902344 16.992188 7.078125 L 12.433594 12.398438 L 11.199219 12.398438 L 11.199219 10 C 11.199219 9.558594 10.84375 9.199219 10.398438 9.199219 L 9.601562 9.199219 L 9.601562 6.800781 C 9.601562 6.359375 9.242188 6 8.800781 6 L 4 6 C 3.558594 6 3.199219 6.359375 3.199219 6.800781 L 3.199219 9.199219 L 2.398438 9.199219 C 1.957031 9.199219 1.601562 9.558594 1.601562 10 L 1.601562 12.398438 L 0 12.398438 L 0 41.199219 C 0 41.640625 0.359375 42 0.800781 42 L 47.199219 42 C 47.640625 42 48 41.640625 48 41.199219 L 48 13.199219 C 48 12.757812 47.640625 12.398438 47.199219 12.398438 Z M 38.398438 10.800781 L 44.800781 10.800781 L 44.800781 12.398438 L 38.398438 12.398438 Z M 4.800781 7.601562 L 8 7.601562 L 8 9.199219 L 4.800781 9.199219 Z M 3.199219 10.800781 L 9.601562 10.800781 L 9.601562 12.398438 L 3.199219 12.398438 Z M 1.601562 18.800781 L 13.425781 18.800781 C 10.023438 23.769531 10.570312 30.445312 14.730469 34.800781 L 1.601562 34.800781 Z M 24 14.800781 C 30.1875 14.800781 35.199219 19.8125 35.199219 26 C 35.199219 32.1875 30.1875 37.199219 24 37.199219 C 17.8125 37.199219 12.800781 32.1875 12.800781 26 C 12.804688 19.816406 17.816406 14.804688 24 14.800781 Z M 46.398438 40.398438 L 1.601562 40.398438 L 1.601562 36.398438 L 16.566406 36.398438 C 21.003906 39.601562 26.996094 39.601562 31.433594 36.398438 L 46.398438 36.398438 Z M 46.398438 34.800781 L 33.269531 34.800781 C 37.429688 30.445312 37.976562 23.769531 34.574219 18.800781 L 46.398438 18.800781 Z M 46.398438 17.199219 L 33.269531 17.199219 C 28.441406 12.078125 20.375 11.84375 15.257812 16.671875 C 15.074219 16.84375 14.898438 17.019531 14.730469 17.199219 L 1.601562 17.199219 L 1.601562 14 L 12.800781 14 C 13.035156 14 13.253906 13.898438 13.40625 13.722656 L 17.96875 8.398438 L 29.230469 8.398438 L 33.792969 13.722656 C 33.945312 13.898438 34.167969 14 34.398438 14 L 46.398438 14 Z M 46.398438 17.199219 "/>
<path style=" stroke:none;fill-rule:nonzero;fill:rgb(0%,0%,0%);fill-opacity:1;" d="M 43.199219 22 L 44.800781 22 L 44.800781 29.199219 L 43.199219 29.199219 Z M 43.199219 22 "/>
<path style=" stroke:none;fill-rule:nonzero;fill:rgb(0%,0%,0%);fill-opacity:1;" d="M 43.199219 30.800781 L 44.800781 30.800781 L 44.800781 32.398438 L 43.199219 32.398438 Z M 43.199219 30.800781 "/>
<path style=" stroke:none;fill-rule:nonzero;fill:rgb(0%,0%,0%);fill-opacity:1;" d="M 3.199219 22 L 4.800781 22 L 4.800781 29.199219 L 3.199219 29.199219 Z M 3.199219 22 "/>
<path style=" stroke:none;fill-rule:nonzero;fill:rgb(0%,0%,0%);fill-opacity:1;" d="M 3.199219 30.800781 L 4.800781 30.800781 L 4.800781 32.398438 L 3.199219 32.398438 Z M 3.199219 30.800781 "/>
<path style=" stroke:none;fill-rule:nonzero;fill:rgb(0%,0%,0%);fill-opacity:1;" d="M 24 34.800781 C 28.859375 34.800781 32.800781 30.859375 32.800781 26 C 32.800781 21.140625 28.859375 17.199219 24 17.199219 C 19.140625 17.199219 15.199219 21.140625 15.199219 26 C 15.207031 30.859375 19.140625 34.792969 24 34.800781 Z M 24 18.800781 C 27.976562 18.800781 31.199219 22.023438 31.199219 26 C 31.199219 29.976562 27.976562 33.199219 24 33.199219 C 20.023438 33.199219 16.800781 29.976562 16.800781 26 C 16.804688 22.027344 20.027344 18.804688 24 18.800781 Z M 24 18.800781 "/>
<path style=" stroke:none;fill-rule:nonzero;fill:rgb(0%,0%,0%);fill-opacity:1;" d="M 24 31.601562 L 24 30 C 21.789062 30 20 28.210938 20 26 C 20 23.789062 21.789062 22 24 22 L 24 20.398438 C 20.90625 20.398438 18.398438 22.90625 18.398438 26 C 18.398438 29.09375 20.90625 31.601562 24 31.601562 Z M 24 31.601562 "/>
</g>
</svg>
