<?xml version="1.0" encoding="UTF-8"?>
<svg xmlns="http://www.w3.org/2000/svg" xmlns:xlink="http://www.w3.org/1999/xlink" width="48pt" height="48pt" viewBox="0 0 48 48" version="1.1">
<g id="surface1">
<path style=" stroke:none;fill-rule:nonzero;fill:rgb(0%,0%,0%);fill-opacity:1;" d="M 37.6875 15.5625 C 37.171875 15.5625 36.75 15.984375 36.75 16.5 C 36.75 17.015625 37.171875 17.4375 37.6875 17.4375 C 38.203125 17.4375 38.625 17.015625 38.625 16.5 C 38.625 15.984375 38.203125 15.5625 37.6875 15.5625 Z M 37.6875 15.5625 "/>
<path style=" stroke:none;fill-rule:nonzero;fill:rgb(0%,0%,0%);fill-opacity:1;" d="M 45.1875 11.8125 L 34.890625 11.8125 L 31.917969 5.867188 C 31.441406 4.910156 30.476562 4.3125 29.402344 4.3125 L 18.597656 4.3125 C 17.523438 4.3125 16.558594 4.910156 16.082031 5.867188 L 13.109375 11.8125 L 11.25 11.8125 L 11.25 10.875 C 11.25 9.324219 9.988281 8.0625 8.4375 8.0625 L 6.5625 8.0625 C 5.011719 8.0625 3.75 9.324219 3.75 10.875 L 3.75 11.8125 L 2.8125 11.8125 C 1.261719 11.8125 0 13.074219 0 14.625 C 0 17.171875 0 39.882812 0 40.875 C 0 42.425781 1.261719 43.6875 2.8125 43.6875 L 45.1875 43.6875 C 46.738281 43.6875 48 42.425781 48 40.875 C 48 38.328125 48 15.617188 48 14.625 C 48 13.074219 46.738281 11.8125 45.1875 11.8125 Z M 17.757812 6.707031 C 17.917969 6.386719 18.238281 6.1875 18.597656 6.1875 L 29.402344 6.1875 C 29.761719 6.1875 30.082031 6.386719 30.242188 6.707031 L 32.796875 11.8125 L 15.203125 11.8125 Z M 5.625 10.875 C 5.625 10.359375 6.046875 9.9375 6.5625 9.9375 L 8.4375 9.9375 C 8.953125 9.9375 9.375 10.359375 9.375 10.875 L 9.375 11.8125 L 5.625 11.8125 Z M 1.875 21.179688 L 13.730469 21.179688 C 12.484375 23.125 11.8125 25.40625 11.8125 27.75 C 11.8125 30.09375 12.484375 32.367188 13.730469 34.3125 L 1.875 34.3125 Z M 24 17.4375 C 29.636719 17.4375 34.3125 22.003906 34.3125 27.75 C 34.3125 33.488281 29.644531 38.0625 24 38.0625 C 18.351562 38.0625 13.6875 33.484375 13.6875 27.75 C 13.6875 22.011719 18.355469 17.4375 24 17.4375 Z M 46.125 40.875 C 46.125 41.390625 45.703125 41.8125 45.1875 41.8125 L 2.8125 41.8125 C 2.296875 41.8125 1.875 41.390625 1.875 40.875 L 1.875 36.1875 L 15.207031 36.1875 C 17.5 38.574219 20.679688 39.9375 24 39.9375 C 27.320312 39.9375 30.5 38.574219 32.792969 36.1875 L 46.125 36.1875 Z M 46.125 34.3125 L 34.269531 34.3125 C 35.515625 32.367188 36.1875 30.09375 36.1875 27.75 C 36.1875 25.40625 35.515625 23.132812 34.269531 21.1875 L 46.125 21.1875 Z M 46.125 19.3125 L 32.792969 19.3125 C 30.5 16.925781 27.320312 15.5625 24 15.5625 C 20.679688 15.5625 17.5 16.925781 15.207031 19.3125 L 1.875 19.3125 L 1.875 14.625 C 1.875 14.109375 2.296875 13.6875 2.8125 13.6875 C 3.664062 13.6875 43.871094 13.6875 45.1875 13.6875 C 45.703125 13.6875 46.125 14.109375 46.125 14.625 Z M 46.125 19.3125 "/>
<path style=" stroke:none;fill-rule:nonzero;fill:rgb(0%,0%,0%);fill-opacity:1;" d="M 26.8125 8.0625 L 21.1875 8.0625 C 20.667969 8.0625 20.25 8.480469 20.25 9 C 20.25 9.519531 20.667969 9.9375 21.1875 9.9375 L 26.8125 9.9375 C 27.332031 9.9375 27.75 9.519531 27.75 9 C 27.75 8.480469 27.332031 8.0625 26.8125 8.0625 Z M 26.8125 8.0625 "/>
<path style=" stroke:none;fill-rule:nonzero;fill:rgb(0%,0%,0%);fill-opacity:1;" d="M 24 19.3125 C 19.347656 19.3125 15.5625 23.097656 15.5625 27.75 C 15.5625 32.402344 19.347656 36.1875 24 36.1875 C 28.652344 36.1875 32.4375 32.402344 32.4375 27.75 C 32.4375 23.097656 28.652344 19.3125 24 19.3125 Z M 24 34.3125 C 20.382812 34.3125 17.4375 31.367188 17.4375 27.75 C 17.4375 24.132812 20.382812 21.1875 24 21.1875 C 27.617188 21.1875 30.5625 24.132812 30.5625 27.75 C 30.5625 31.367188 27.617188 34.3125 24 34.3125 Z M 24 34.3125 "/>
<path style=" stroke:none;fill-rule:nonzero;fill:rgb(0%,0%,0%);fill-opacity:1;" d="M 24 23.0625 C 21.414062 23.0625 19.3125 25.164062 19.3125 27.75 C 19.3125 28.269531 19.730469 28.6875 20.25 28.6875 C 20.769531 28.6875 21.1875 28.269531 21.1875 27.75 C 21.1875 26.199219 22.449219 24.9375 24 24.9375 C 24.519531 24.9375 24.9375 24.519531 24.9375 24 C 24.9375 23.480469 24.519531 23.0625 24 23.0625 Z M 24 23.0625 "/>
<path style=" stroke:none;fill-rule:nonzero;fill:rgb(0%,0%,0%);fill-opacity:1;" d="M 43.3125 15.5625 L 41.4375 15.5625 C 40.917969 15.5625 40.5 15.980469 40.5 16.5 C 40.5 17.019531 40.917969 17.4375 41.4375 17.4375 L 43.3125 17.4375 C 43.832031 17.4375 44.25 17.019531 44.25 16.5 C 44.25 15.980469 43.832031 15.5625 43.3125 15.5625 Z M 43.3125 15.5625 "/>
</g>
</svg>
